<svg width="50" height="20" viewBox="0 0 50 20" fill="none" xmlns="http://www.w3.org/2000/svg">
<path d="M33.5898 14.4453C33.889 14.4454 34.1359 14.5497 34.3311 14.7578C34.5393 14.9661 34.6436 15.2136 34.6436 15.5C34.6435 15.7992 34.5392 16.0526 34.3311 16.2607C34.1229 16.4689 33.876 16.5731 33.5898 16.5732C33.3035 16.5732 33.0559 16.469 32.8477 16.2607C32.6396 16.0526 32.5352 15.7992 32.5352 15.5C32.5352 15.2136 32.6394 14.9661 32.8477 14.7578C33.0559 14.5496 33.3035 14.4453 33.5898 14.4453ZM20.7803 6.92871C22.0949 6.92871 23.0712 7.30011 23.709 8.04199C24.3598 8.77089 24.6855 9.8319 24.6855 11.2246L24.6465 12.0049H18.7305C18.7305 13.0981 18.9651 13.9899 19.4336 14.6797C19.9021 15.3695 20.5463 15.7148 21.3662 15.7148C21.978 15.7148 22.4927 15.5845 22.9092 15.3242C24.7086 14.2419 26.0215 12.9936 26.8184 11.9609V9.57227C26.8184 8.91591 26.7249 8.433 26.5391 8.12402C26.3532 7.80227 25.9815 7.64071 25.4238 7.64062H25.2246V7.25488H26.8184C27.323 7.25491 27.7018 7.32521 27.9541 7.4668C28.2197 7.59554 28.4055 7.81513 28.5117 8.12402H28.6113C28.8504 7.82794 29.1689 7.57609 29.5674 7.37012C29.9791 7.16417 30.4575 7.06155 31.002 7.06152C31.5332 7.06152 31.9316 7.15849 32.1973 7.35156C32.423 7.51885 32.6555 7.80805 32.8945 8.21973L32.0977 8.7998C31.9516 8.60683 31.7396 8.46512 31.4609 8.375C31.182 8.27201 30.8625 8.21973 30.5039 8.21973C30.1055 8.21975 29.7402 8.31006 29.4082 8.49023C29.0762 8.65757 28.8106 8.88951 28.6113 9.18555V16.3301H26.8184V12.8945C26.0623 13.8987 24.8538 14.9587 23.2549 15.9746C22.6822 16.3 21.7435 16.4961 20.9756 16.4961C20.0907 16.496 19.3421 16.2875 18.7305 15.8711C18.1188 15.4416 17.6571 14.8682 17.3447 14.1523C17.0324 13.4235 16.876 12.6099 16.876 11.7119C16.876 10.827 17.0324 10.0198 17.3447 9.29102C17.6571 8.56236 18.1059 7.98968 18.6914 7.57324C19.29 7.1438 19.9865 6.9288 20.7803 6.92871ZM46.8232 3.41406C47.3048 3.41406 47.6632 3.47922 47.8975 3.60938C48.1447 3.72653 48.3207 3.9481 48.4248 4.27344C48.5289 4.59877 48.5801 5.09333 48.5801 5.75684V16.2998H47.6045L46.9209 15.4219H46.8232C46.5371 15.747 46.1988 16.007 45.8086 16.2021C45.4311 16.3974 44.8904 16.4951 44.1875 16.4951C43.0552 16.4951 42.183 16.0465 41.5713 15.1484C40.9726 14.2503 40.6738 13.1046 40.6738 11.7119C40.6738 10.3193 40.9856 9.17347 41.6104 8.27539C42.2481 7.37746 43.1725 6.92873 44.3828 6.92871C44.8774 6.92871 45.3139 6.98083 45.6914 7.08496C46.0687 7.18908 46.4459 7.33249 46.8232 7.51465V5.75684C46.8232 5.09323 46.732 4.60529 46.5498 4.29297C46.3676 3.96769 46.0035 3.80475 45.457 3.80469H45.0664V3.41406H46.8232ZM12.3242 6.92871C13.1571 6.92878 13.8209 7.1894 14.3154 7.70996C14.81 8.23062 15.0576 9.14186 15.0576 10.4434V16.3008H13.2998V10.4434C13.2998 9.50627 13.1695 8.83612 12.9092 8.43262C12.6489 8.01614 12.2589 7.80765 11.7383 7.80762C11.3738 7.80762 10.9894 7.94444 10.5859 8.21777C10.1828 8.47792 9.88366 8.76404 9.68848 9.07617C9.75356 9.27141 9.78613 9.72748 9.78613 10.4434V16.3008H8.02832V10.4434C8.02832 9.50627 7.89798 8.83612 7.6377 8.43262C7.37739 8.01613 6.98738 7.80764 6.4668 7.80762C5.77709 7.80762 5.12629 8.15223 4.51465 8.8418V16.3008H2.75684V9.4668C2.75682 8.80309 2.6656 8.31528 2.4834 8.00293C2.30119 7.67757 1.93721 7.51468 1.39062 7.51465H1V7.12402H2.75684C3.23843 7.12402 3.60328 7.18918 3.85059 7.31934C4.11087 7.4495 4.29986 7.64497 4.41699 7.90527H4.51465C4.78793 7.63201 5.13895 7.40387 5.56836 7.22168C6.0109 7.02644 6.50606 6.92871 7.05273 6.92871C7.59921 6.92875 8.06763 7.03304 8.45801 7.24121C8.84849 7.43645 9.16122 7.78828 9.39551 8.2959C9.73388 7.86643 10.163 7.53409 10.6836 7.2998C11.2172 7.0525 11.7645 6.92871 12.3242 6.92871ZM37.04 7.12402C37.5213 7.12404 37.879 7.18931 38.1133 7.31934C38.3606 7.43648 38.5365 7.658 38.6406 7.9834C38.7447 8.30876 38.7969 8.80318 38.7969 9.4668V16.3008H37.04V9.4668C37.04 8.80323 36.9487 8.31529 36.7666 8.00293C36.5844 7.67753 36.2195 7.51465 35.6729 7.51465H35.2832V7.12402H37.04ZM44.9688 7.70996C44.1359 7.70996 43.5178 8.07408 43.1143 8.80273C42.7238 9.5316 42.5283 10.5015 42.5283 11.7119C42.5283 12.9094 42.7173 13.8792 43.0947 14.6211C43.4722 15.3499 44.0316 15.7148 44.7734 15.7148C45.3068 15.7148 45.7101 15.6169 45.9834 15.4219C46.2567 15.2266 46.5369 14.9334 46.8232 14.543V8.29492C46.4331 8.11287 46.0948 7.9703 45.8086 7.86621C45.5223 7.7621 45.242 7.70998 44.9688 7.70996ZM20.7803 7.70996C20.39 7.71009 20.0388 7.86646 19.7266 8.17871C19.4143 8.47804 19.1666 8.8942 18.9844 9.42773C18.8152 9.96139 18.7305 10.5608 18.7305 11.2246H22.8311C22.8311 10.0794 22.6615 9.20712 22.3232 8.6084C21.9848 8.00966 21.4701 7.70996 20.7803 7.70996ZM37.8184 3C38.4386 3.00016 38.8505 3.5415 38.8506 4.05469C38.8506 5.08694 37.1295 5.92773 37.0957 5.92773C37.0522 5.92285 35.3418 5.08392 35.3418 4.05469C35.3419 3.54707 35.7592 3.00002 36.374 3C36.7294 3 36.9603 3.16389 37.0957 3.31055C37.2311 3.16389 37.463 3 37.8184 3Z" fill="#7364DB"/>
</svg>
