<svg width="120" height="40" viewBox="0 0 120 40" fill="none" xmlns="http://www.w3.org/2000/svg">
<path d="M27.8672 7C34.9686 7 40.7334 12.7647 40.7334 19.8661C40.7334 26.9675 34.9686 32.7322 27.8672 32.7322C20.7658 32.7322 15 26.9675 15 19.8661C15 12.7647 20.7658 7 27.8672 7ZM93.7849 26.5406H96.5913V23.6996H102.158L102.175 26.5272H104.981V21.8432C104.981 20.4294 105.099 18.6669 104.745 17.3872C104.085 14.9776 101.878 13.2934 99.3786 13.2934C96.9008 13.2934 94.7081 14.9474 94.0274 17.3291C93.6508 18.592 93.7782 20.4037 93.7782 21.8052C93.7782 23.3889 93.7614 24.9815 93.7782 26.5641L93.7849 26.5406ZM61.6956 26.5384H64.4919C64.4919 25.9449 64.417 24.1288 64.5176 23.6974H70.0644L70.0834 26.5361H72.8842C72.8696 24.9625 72.8842 23.3911 72.8842 21.8242C72.8842 20.4808 73.0093 18.5585 72.6483 17.366C71.9845 14.9597 69.7783 13.2811 67.2826 13.2811C64.8059 13.2811 62.6143 14.9329 61.9314 17.3123C61.5559 18.5373 61.6833 20.4104 61.6833 21.775C61.6833 23.3487 61.6486 24.9625 61.6833 26.5317L61.6956 26.5384ZM50.5774 26.5171C52.2874 26.6401 54.2812 25.3112 54.9831 24.5523C57.424 21.9114 57.4821 18.0925 55.0256 15.3263C54.1114 14.2959 51.9622 13.1581 50.6031 13.3191H45.6811V26.5004L50.5886 26.5171H50.5774ZM77.8062 18.4669L77.766 20.4294C77.766 22.079 77.6855 25.1581 77.766 26.4981H80.5086C80.5723 25.556 80.4091 18.8625 80.5813 18.6479C80.5813 17.347 81.9414 16.1366 83.3127 16.1321C84.0247 16.1277 84.712 16.4015 85.225 16.8955C85.5737 17.2129 86.109 17.9393 86.099 18.6714C86.2264 18.7451 86.1258 25.7393 86.1649 26.5149H88.9098L88.8886 18.516C88.9579 17.889 88.5801 16.9212 88.3376 16.4305C87.4133 14.5138 85.4653 13.29 83.3373 13.29C81.2429 13.29 79.3194 14.4758 78.3784 16.3467C78.1426 16.8295 77.7469 17.8231 77.8062 18.4669ZM48.4562 23.6616V16.1578C49.2273 16.1075 49.9996 16.1075 50.7708 16.1578C51.3765 16.2282 51.9543 16.4518 52.4506 16.8083C55.2771 18.7396 54.0991 23.3464 50.7227 23.6549C49.9683 23.7074 49.2117 23.7096 48.4562 23.6616ZM96.5935 20.8418C96.5767 19.6638 96.4516 18.4032 97.0059 17.4956C97.4999 16.6474 98.4152 16.1265 99.3976 16.1366C100.373 16.1433 101.277 16.6652 101.773 17.5079C102.319 18.4501 102.189 19.6281 102.175 20.844L96.5935 20.8418ZM64.4941 20.8418C64.4751 19.6638 64.3555 18.3864 64.9088 17.4979C65.4028 16.6518 66.3125 16.1299 67.2927 16.1299C68.2728 16.1299 69.1815 16.6518 69.6754 17.4979C70.2242 18.4411 70.0923 19.6381 70.0834 20.8373L64.4941 20.8418Z" fill="#108DE8"/>
<path d="M35.3643 19.9197V23.5419C35.3643 23.7766 35.2626 23.8269 35.0648 23.7107C34.7999 23.552 34.525 23.4123 34.24 23.2916C33.3817 22.9496 32.4518 22.8255 31.5331 22.9317C30.5306 23.0613 29.5471 23.3083 28.6016 23.666C27.6594 23.9845 26.7362 24.3287 25.7751 24.5947C24.9782 24.8317 24.1501 24.9401 23.3197 24.9177C22.3999 24.882 21.5058 24.6025 20.7279 24.1097C20.5289 23.9901 20.4105 23.771 20.4194 23.5397V16.4238C20.4194 16.3086 20.4194 16.1723 20.5234 16.1131C20.6273 16.0538 20.7324 16.1511 20.8218 16.2092C21.6667 16.7803 22.6658 17.0764 23.6851 17.0574C24.4138 17.0273 25.1336 16.8932 25.8243 16.6596C26.8044 16.3556 27.7511 15.9521 28.7156 15.6112C29.4655 15.3229 30.2344 15.0871 31.0168 14.9038C32.3747 14.5864 33.8041 14.8501 34.9586 15.6325C35.2246 15.7956 35.3833 16.0907 35.371 16.4025V19.9365L35.3643 19.9197Z" fill="white"/>
</svg>
