<svg width="40" height="40" viewBox="0 0 40 40" fill="none" xmlns="http://www.w3.org/2000/svg">
<g clip-path="url(#clip0_932_19)">
<path d="M24.0226 6.74293C25.4487 5.27519 29.4823 2.80613 34.2121 4.66773C38.9421 6.52956 40.041 10.6848 39.9992 12.53V26.6443C39.9992 30.041 39.3575 32.1924 36.0363 34.2556C31.8846 36.8344 21.3801 35.3877 21.38 26.6834C21.6328 24.443 22.0732 22.0524 26.4123 17.5623L32.6398 11.3347C32.9124 11.5654 34.2121 12.8305 33.1427 13.8757C32.4597 14.5441 33.4572 15.634 33.4572 16.242L26.7902 22.8464C24.9043 25.2608 23.2812 29.7643 29.1183 31.6765C31.7602 32.542 36.0363 31.4877 36.0363 26.6443V12.53C35.9523 11.6074 35.2185 9.48565 32.9543 8.37867C30.1242 6.99516 27.4276 8.99932 26.7902 9.63648C26.4006 10.0261 23.342 13.0525 20.9396 15.4236C20.8746 16.356 21.044 17.3362 21.7648 18.0662C22.4846 18.7951 21.5158 17.8432 20.0002 16.3494C18.4845 17.8432 17.5157 18.7951 18.2355 18.0662C18.9563 17.3362 19.1247 16.356 19.0597 15.4236C16.6574 13.0526 13.5997 10.0261 13.2101 9.63648C12.5727 8.99933 9.87613 6.99523 7.04606 8.37867C4.78183 9.48563 4.04803 11.6073 3.96403 12.53V26.6443C3.96403 31.4877 8.24011 32.542 10.882 31.6765C16.719 29.7643 15.096 25.2608 13.2101 22.8464L6.54313 16.242C6.54313 15.634 7.54061 14.5441 6.85758 13.8757C5.78847 12.8307 7.08756 11.5667 7.36051 11.3357L13.588 17.5623C17.9271 22.0524 18.3675 24.443 18.6203 26.6834C18.6203 35.3877 8.1157 36.8344 3.96403 34.2556C0.642802 32.1924 0.00113513 30.041 0.00113513 26.6443V12.53C-0.0406883 10.6848 1.05824 6.52954 5.78824 4.66773C10.518 2.80619 14.5517 5.2752 15.9777 6.74293L20.0002 10.7654L24.0226 6.74293Z" fill="url(#paint0_linear_932_19)"/>
</g>
<defs>
<linearGradient id="paint0_linear_932_19" x1="-0.105225" y1="16.6584" x2="40.0003" y2="16.6584" gradientUnits="userSpaceOnUse">
<stop stop-color="#9A8EEA"/>
<stop offset="1" stop-color="#7364DB"/>
</linearGradient>
<clipPath id="clip0_932_19">
<rect width="40" height="40" fill="white"/>
</clipPath>
</defs>
</svg>
